<?xml version="1.0" encoding="UTF-8"?>
<svg id="Layer_3" data-name="Layer 3" xmlns="http://www.w3.org/2000/svg" viewBox="0 0 570.73 766.04">
  <defs>
    <style>
      .cls-1 {
        fill: #231f20;
      }
    </style>
  </defs>
  <path class="cls-1" d="M327.96,383.02s-58.57,89.43-60.95,76.3c26.04-42.66,49.31-142.95,52.08-156.8,18.28-120.78-44.32-114.14-44.32-114.14-85.32-3.32-175.64,182.84-177.3,188.38-34.91,78.12,8.31,88.1,8.31,88.1,33.8,8.31,64.23-12.74,55.96-81.84s43.85-65.56,54.85-61.11c27.84,11.08,6.09,61.11,3.32,71.47-18.28,43.77-31.03,116.91-32.69,125.22-12.19,101.39,34.92,78.09,69.26,45.43,34.34-32.65,116.71-161.85,123.55-219.41,6.84-57.55-52.08,38.39-52.08,38.39Zm-60.1-101.17c-9.8-8.72-25.53-17.61-49.93-19.88-2.84-.27-4.38-3.45-2.8-5.82,8.29-12.39,94.95-107.7,69.21,35.08-.59,3.26-4.85,4.19-6.75,1.48"/>
  <circle class="cls-1" cx="112.14" cy="514.95" r="39.38"/>
</svg>